<svg width="206" height="53" viewBox="0 0 206 53" fill="none" xmlns="http://www.w3.org/2000/svg">
<path d="M15.3423 5.3276C15.0958 5.31553 14.8494 5.35223 14.6171 5.43559C14.3848 5.51896 14.1713 5.64735 13.9888 5.81341L5.70315 13.413C5.52197 13.5805 5.37565 13.7822 5.27257 14.0064C5.16949 14.2306 5.11169 14.4729 5.10246 14.7195C5.09039 14.966 5.12709 15.2124 5.21045 15.4447C5.29382 15.6769 5.42221 15.8905 5.58827 16.073L10.6606 21.6033L30.251 42.9622C30.4185 43.1434 30.6202 43.2897 30.8444 43.3928C31.0686 43.4959 31.3109 43.5537 31.5575 43.5629L39.5001 43.9059C39.997 43.9274 40.4819 43.7506 40.8484 43.4145C41.2149 43.0783 41.4328 42.6104 41.4543 42.1136L41.7973 34.171C41.8229 33.9095 41.7932 33.6455 41.7102 33.3962C41.6272 33.1469 41.4928 32.9178 41.3156 32.7238L21.7203 11.4773L16.7425 5.93234C16.5683 5.75351 16.3654 5.60518 16.1421 5.49352C15.9936 5.46902 15.8426 5.4625 15.6925 5.4741C15.6057 5.46157 15.5178 5.45778 15.4303 5.46278L15.3423 5.3276ZM38.0176 34.7772L37.7887 40.0785L32.4874 39.8496L14.6894 20.4448L20.2196 15.3724L38.0176 34.7772ZM17.6924 12.617L12.1621 17.6894L9.63574 14.9153L15.1465 9.86088L17.6924 12.617Z" fill="#6366F1"/>
<path d="M55.0477 14.5625V43H49.1883V14.5625H55.0477ZM66.3758 26.7109V31.2812H53.4461V26.7109H66.3758ZM67.743 14.5625V19.1523H53.4461V14.5625H67.743ZM82.332 38.2344V28.8203C82.332 28.1432 82.2214 27.5638 82 27.082C81.7786 26.5872 81.4336 26.2031 80.9648 25.9297C80.5091 25.6562 79.9167 25.5195 79.1875 25.5195C78.5625 25.5195 78.0221 25.6302 77.5664 25.8516C77.1107 26.0599 76.7591 26.3659 76.5117 26.7695C76.2643 27.1602 76.1406 27.6224 76.1406 28.1562H70.5156C70.5156 27.2578 70.724 26.4049 71.1406 25.5977C71.5573 24.7904 72.1628 24.0807 72.957 23.4688C73.7513 22.8438 74.6953 22.3555 75.7891 22.0039C76.8958 21.6523 78.1328 21.4766 79.5 21.4766C81.1406 21.4766 82.599 21.75 83.875 22.2969C85.151 22.8438 86.1536 23.6641 86.8828 24.7578C87.625 25.8516 87.9961 27.2188 87.9961 28.8594V37.9023C87.9961 39.0612 88.0677 40.0117 88.2109 40.7539C88.3542 41.4831 88.5625 42.1211 88.8359 42.668V43H83.1523C82.8789 42.4271 82.6706 41.7109 82.5273 40.8516C82.3971 39.9792 82.332 39.1068 82.332 38.2344ZM83.0742 30.1289L83.1133 33.3125H79.9687C79.2266 33.3125 78.582 33.3971 78.0352 33.5664C77.4883 33.7357 77.0391 33.9766 76.6875 34.2891C76.3359 34.5885 76.0755 34.9401 75.9062 35.3438C75.75 35.7474 75.6719 36.1901 75.6719 36.6719C75.6719 37.1536 75.7825 37.5898 76.0039 37.9805C76.2253 38.3581 76.5443 38.6576 76.9609 38.8789C77.3776 39.0872 77.8659 39.1914 78.4258 39.1914C79.2721 39.1914 80.0078 39.0221 80.6328 38.6836C81.2578 38.3451 81.7396 37.9284 82.0781 37.4336C82.4297 36.9388 82.612 36.4701 82.625 36.0273L84.1094 38.4102C83.901 38.944 83.6146 39.4974 83.25 40.0703C82.8984 40.6432 82.4492 41.1836 81.9023 41.6914C81.3555 42.1862 80.6979 42.5964 79.9297 42.9219C79.1615 43.2344 78.25 43.3906 77.1953 43.3906C75.8542 43.3906 74.6367 43.1237 73.543 42.5898C72.4622 42.043 71.6029 41.2943 70.9648 40.3438C70.3398 39.3802 70.0273 38.2865 70.0273 37.0625C70.0273 35.9557 70.2357 34.9727 70.6523 34.1133C71.069 33.2539 71.681 32.5312 72.4883 31.9453C73.3086 31.3464 74.3307 30.8971 75.5547 30.5977C76.7786 30.2852 78.1979 30.1289 79.8125 30.1289H83.0742ZM101.862 38.9961C102.553 38.9961 103.165 38.8659 103.698 38.6055C104.232 38.332 104.649 37.9544 104.948 37.4727C105.261 36.9779 105.424 36.3984 105.437 35.7344H110.73C110.717 37.2188 110.32 38.5404 109.538 39.6992C108.757 40.8451 107.709 41.75 106.394 42.4141C105.079 43.0651 103.607 43.3906 101.98 43.3906C100.339 43.3906 98.9068 43.1172 97.6828 42.5703C96.4719 42.0234 95.4628 41.2682 94.6555 40.3047C93.8482 39.3281 93.2427 38.1953 92.8391 36.9062C92.4354 35.6042 92.2336 34.2109 92.2336 32.7266V32.1602C92.2336 30.6628 92.4354 29.2695 92.8391 27.9805C93.2427 26.6784 93.8482 25.5456 94.6555 24.582C95.4628 23.6055 96.4719 22.8438 97.6828 22.2969C98.8937 21.75 100.313 21.4766 101.941 21.4766C103.672 21.4766 105.189 21.8086 106.491 22.4727C107.807 23.1367 108.835 24.0872 109.577 25.3242C110.333 26.5482 110.717 28 110.73 29.6797H105.437C105.424 28.9766 105.274 28.3385 104.987 27.7656C104.714 27.1927 104.31 26.737 103.777 26.3984C103.256 26.0469 102.611 25.8711 101.843 25.8711C101.023 25.8711 100.352 26.0469 99.8312 26.3984C99.3104 26.737 98.9068 27.2057 98.6203 27.8047C98.3338 28.3906 98.132 29.0612 98.0148 29.8164C97.9107 30.5586 97.8586 31.3398 97.8586 32.1602V32.7266C97.8586 33.5469 97.9107 34.3346 98.0148 35.0898C98.119 35.8451 98.3143 36.5156 98.6008 37.1016C98.9003 37.6875 99.3104 38.1497 99.8312 38.4883C100.352 38.8268 101.029 38.9961 101.862 38.9961ZM125.143 21.8672V25.8516H112.838V21.8672H125.143ZM115.885 16.6523H121.51V36.6328C121.51 37.2448 121.588 37.7135 121.745 38.0391C121.914 38.3646 122.161 38.5924 122.487 38.7227C122.812 38.8398 123.222 38.8984 123.717 38.8984C124.069 38.8984 124.381 38.8854 124.655 38.8594C124.941 38.8203 125.182 38.7812 125.377 38.7422L125.397 42.8828C124.915 43.0391 124.394 43.1628 123.834 43.2539C123.274 43.3451 122.656 43.3906 121.979 43.3906C120.742 43.3906 119.661 43.1888 118.737 42.7852C117.825 42.3685 117.122 41.7044 116.627 40.793C116.133 39.8815 115.885 38.6836 115.885 37.1992V16.6523ZM129.42 40.2852C129.42 39.4518 129.706 38.7552 130.279 38.1953C130.865 37.6354 131.64 37.3555 132.603 37.3555C133.567 37.3555 134.335 37.6354 134.908 38.1953C135.494 38.7552 135.787 39.4518 135.787 40.2852C135.787 41.1185 135.494 41.8151 134.908 42.375C134.335 42.9349 133.567 43.2148 132.603 43.2148C131.64 43.2148 130.865 42.9349 130.279 42.375C129.706 41.8151 129.42 41.1185 129.42 40.2852ZM147.173 26.4766V43H141.548V21.8672H146.841L147.173 26.4766ZM153.54 21.7305L153.442 26.9453C153.169 26.9062 152.837 26.8737 152.446 26.8477C152.068 26.8086 151.723 26.7891 151.411 26.7891C150.617 26.7891 149.927 26.8932 149.341 27.1016C148.768 27.2969 148.286 27.5898 147.895 27.9805C147.518 28.3711 147.231 28.8464 147.036 29.4062C146.854 29.9661 146.749 30.6042 146.723 31.3203L145.591 30.9688C145.591 29.6016 145.727 28.3451 146.001 27.1992C146.274 26.0404 146.671 25.0312 147.192 24.1719C147.726 23.3125 148.377 22.6484 149.145 22.1797C149.914 21.7109 150.792 21.4766 151.782 21.4766C152.095 21.4766 152.414 21.5026 152.739 21.5547C153.065 21.5938 153.332 21.6523 153.54 21.7305ZM162.934 13V43H157.289V13H162.934ZM174.652 40.6172L180.257 21.8672H186.292L177.796 46.1836C177.614 46.7174 177.366 47.2904 177.054 47.9023C176.754 48.5143 176.344 49.0938 175.823 49.6406C175.316 50.2005 174.671 50.6562 173.89 51.0078C173.122 51.3594 172.178 51.5352 171.058 51.5352C170.524 51.5352 170.088 51.5026 169.749 51.4375C169.411 51.3724 169.007 51.2812 168.538 51.1641V47.043C168.681 47.043 168.831 47.043 168.987 47.043C169.144 47.056 169.293 47.0625 169.437 47.0625C170.179 47.0625 170.784 46.9779 171.253 46.8086C171.722 46.6393 172.099 46.3789 172.386 46.0273C172.672 45.6888 172.9 45.2461 173.07 44.6992L174.652 40.6172ZM172.308 21.8672L176.898 37.1797L177.698 43.1367L173.87 43.5469L166.273 21.8672H172.308Z" fill="white"/>
</svg>
